<svg width="657" height="330" viewBox="0 0 657 330" fill="none" xmlns="http://www.w3.org/2000/svg">
<path d="M89 74.5001L531 74.5L397 329.5L65.5322 175.405L89 74.5001Z" fill="#252222"/>
<path d="M90 74.4999L591 39.4998L397 329.5L558 61.9999L90 74.4999Z" fill="#252222"/>
<path d="M91 75.4999L657 3.06399e-05L397 329.5L616.5 21.5L91 75.4999Z" fill="#252222"/>
<path d="M397 329.5L19.0002 190.5L88.5003 75.0003L31.5002 187L397 329.5Z" fill="#252222"/>
<path d="M397 329.5L0.500128 194.5L88.5003 75.0003L11.5002 192.5L397 329.5Z" fill="#252222"/>
<path d="M397 329.5L40.5001 184L88.5003 75.0003L53 180.5L397 329.5Z" fill="#252222"/>
<path d="M82.4866 167.231L92.906 94.9916L103.11 99.7829L94.0499 154.583L94.7082 154.892L130.923 112.843L141.292 117.712L131.98 172.192L132.638 172.502L168.941 130.694L179.145 135.486L130.214 189.642L120.669 185.16L129.641 130.118L128.654 129.654L92.0321 171.713L82.4866 167.231ZM186.036 217.46C179.947 214.601 175.325 210.79 172.171 206.029C169.057 201.252 167.447 195.876 167.34 189.901C167.274 183.911 168.761 177.679 171.8 171.206C174.84 164.732 178.698 159.581 183.376 155.751C188.093 151.907 193.228 149.598 198.781 148.824C204.374 148.035 210.023 148.98 215.728 151.659C219.02 153.205 222.012 155.28 224.706 157.884C227.401 160.488 229.485 163.642 230.959 167.348C232.446 171.025 233.024 175.247 232.694 180.014C232.365 184.78 230.815 190.112 228.046 196.009L226.114 200.124L177.399 177.249L181.34 168.856L220.18 187.093C221.855 183.527 222.636 180.011 222.523 176.543C222.438 173.089 221.472 169.94 219.626 167.098C217.808 164.269 215.143 162.03 211.632 160.382C207.765 158.566 203.967 157.954 200.241 158.548C196.554 159.127 193.242 160.584 190.303 162.921C187.365 165.257 185.078 168.167 183.442 171.651L180.815 177.246C178.574 182.019 177.497 186.451 177.584 190.543C177.712 194.62 178.851 198.218 181.002 201.337C183.166 204.429 186.209 206.896 190.132 208.738C192.683 209.935 195.154 210.661 197.546 210.914C199.979 211.152 202.29 210.898 204.482 210.153C206.686 209.38 208.715 208.09 210.568 206.282L218.712 213.32C216.231 216.038 213.258 218.057 209.793 219.376C206.341 220.667 202.585 221.18 198.525 220.914C194.478 220.621 190.315 219.469 186.036 217.46ZM228.909 235.985L268.476 151.721L278.186 156.28L263.581 187.386L264.403 187.772C265.632 187.01 267.276 186.075 269.336 184.966C271.437 183.844 273.996 183.171 277.014 182.947C280.071 182.709 283.658 183.556 287.772 185.488C293.093 187.987 297.159 191.519 299.969 196.086C302.78 200.653 304.177 205.912 304.161 211.864C304.145 217.815 302.578 224.11 299.462 230.748C296.319 237.441 292.457 242.708 287.874 246.549C283.305 250.362 278.373 252.666 273.079 253.461C267.797 254.228 262.523 253.375 257.257 250.903C253.197 248.996 250.263 246.798 248.452 244.308C246.655 241.79 245.504 239.358 244.999 237.012C244.506 234.638 244.174 232.708 244.002 231.221L242.85 230.68L238.29 240.39L228.909 235.985ZM253.292 208.868C251.051 213.641 249.774 218.18 249.46 222.485C249.159 226.762 249.869 230.561 251.591 233.88C253.326 237.172 256.141 239.733 260.036 241.562C264.096 243.468 267.986 243.989 271.706 243.124C275.466 242.245 278.889 240.304 281.973 237.3C285.098 234.281 287.716 230.522 289.829 226.024C291.915 221.58 293.11 217.254 293.413 213.044C293.756 208.819 293.046 205.021 291.282 201.648C289.558 198.261 286.639 195.602 282.524 193.67C278.574 191.815 274.785 191.258 271.157 191.998C267.541 192.71 264.211 194.528 261.165 197.45C258.132 200.344 255.508 204.15 253.292 208.868Z" fill="#E3E3E3"/>
<path d="M78.4866 165.231L88.906 92.9916L99.1098 97.7829L90.0499 152.583L90.7082 152.892L126.923 110.843L137.292 115.712L127.98 170.192L128.638 170.502L164.941 128.694L175.145 133.486L126.214 187.642L116.669 183.16L125.641 128.118L124.654 127.654L88.0321 169.713L78.4866 165.231ZM182.036 215.46C175.947 212.601 171.325 208.79 168.171 204.029C165.057 199.252 163.447 193.876 163.34 187.901C163.274 181.911 164.761 175.679 167.8 169.206C170.84 162.732 174.698 157.581 179.376 153.751C184.093 149.907 189.228 147.598 194.781 146.824C200.374 146.035 206.023 146.98 211.728 149.659C215.02 151.205 218.012 153.28 220.706 155.884C223.401 158.488 225.485 161.642 226.959 165.348C228.446 169.025 229.024 173.247 228.694 178.014C228.365 182.78 226.815 188.112 224.046 194.009L222.114 198.124L173.399 175.249L177.34 166.856L216.18 185.093C217.855 181.527 218.636 178.011 218.523 174.543C218.438 171.089 217.472 167.94 215.626 165.098C213.808 162.269 211.143 160.03 207.632 158.382C203.765 156.566 199.967 155.954 196.241 156.548C192.554 157.127 189.242 158.584 186.303 160.921C183.365 163.257 181.078 166.167 179.442 169.651L176.815 175.246C174.574 180.019 173.497 184.451 173.584 188.543C173.712 192.62 174.851 196.218 177.002 199.337C179.166 202.429 182.209 204.896 186.132 206.738C188.683 207.935 191.154 208.661 193.546 208.914C195.979 209.152 198.29 208.898 200.482 208.153C202.686 207.38 204.715 206.09 206.568 204.282L214.712 211.32C212.231 214.038 209.258 216.057 205.793 217.376C202.341 218.667 198.585 219.18 194.525 218.914C190.478 218.621 186.315 217.469 182.036 215.46ZM224.909 233.985L264.476 149.721L274.186 154.28L259.581 185.386L260.403 185.772C261.632 185.01 263.276 184.075 265.336 182.966C267.437 181.844 269.996 181.171 273.014 180.947C276.071 180.709 279.658 181.556 283.772 183.488C289.093 185.987 293.159 189.519 295.969 194.086C298.78 198.653 300.177 203.912 300.161 209.864C300.145 215.815 298.578 222.11 295.462 228.748C292.319 235.441 288.457 240.708 283.874 244.549C279.305 248.362 274.373 250.666 269.079 251.461C263.797 252.228 258.523 251.375 253.257 248.903C249.197 246.996 246.263 244.798 244.452 242.308C242.655 239.79 241.504 237.358 240.999 235.012C240.506 232.638 240.174 230.708 240.002 229.221L238.85 228.68L234.29 238.39L224.909 233.985ZM249.292 206.868C247.051 211.641 245.774 216.18 245.46 220.485C245.159 224.762 245.869 228.561 247.591 231.88C249.326 235.172 252.141 237.733 256.036 239.562C260.096 241.468 263.986 241.989 267.706 241.124C271.466 240.245 274.889 238.304 277.973 235.3C281.098 232.281 283.716 228.522 285.829 224.024C287.915 219.58 289.11 215.254 289.413 211.044C289.756 206.819 289.046 203.021 287.282 199.648C285.558 196.261 282.639 193.602 278.524 191.67C274.574 189.815 270.785 189.258 267.157 189.998C263.541 190.71 260.211 192.528 257.165 195.45C254.132 198.344 251.508 202.15 249.292 206.868Z" fill="#7C87FD"/>
<path d="M389.113 319.4L304.311 277.597L309.373 267.328L385.065 304.641L404.497 265.221L413.607 269.712L389.113 319.4ZM420.792 255.137L357.191 223.784L362.008 214.012L425.609 245.365L420.792 255.137ZM349.04 213.59C348.101 215.494 346.643 216.817 344.665 217.558C342.701 218.271 340.808 218.178 338.986 217.28C337.164 216.382 335.938 214.937 335.307 212.945C334.69 210.925 334.851 208.962 335.79 207.058C336.729 205.153 338.18 203.844 340.145 203.131C342.122 202.39 344.022 202.469 345.844 203.367C347.666 204.265 348.885 205.724 349.502 207.744C350.133 209.736 349.979 211.685 349.04 213.59ZM400.989 198.834L439.249 217.694L434.432 227.466L370.831 196.114L375.485 186.673L385.423 191.572L385.831 190.744C383.336 187.661 381.857 184.118 381.394 180.115C380.903 176.099 381.842 171.689 384.21 166.886C386.332 162.58 389.073 159.247 392.432 156.888C395.763 154.516 399.652 153.31 404.097 153.271C408.515 153.219 413.429 154.526 418.84 157.193L459.253 177.116L454.436 186.888L414.685 167.292C409.689 164.829 405.157 164.208 401.09 165.428C396.995 166.635 393.832 169.502 391.6 174.029C390.062 177.149 389.364 180.27 389.506 183.394C389.661 186.49 390.689 189.381 392.59 192.068C394.49 194.755 397.29 197.01 400.989 198.834ZM449.359 138.719L437.186 132.924L438.166 130.936L423.56 89.1491L429.521 77.0582L444.884 121.484L444.476 122.312L449.359 138.719ZM468.056 159.259L383.254 117.455L388.072 107.683L472.873 149.487L468.056 159.259ZM487.978 118.846L444.261 128.177L440.9 117.873L494.101 106.423L487.978 118.846Z" fill="#402D55" fill-opacity="0.67"/>
<path d="M390.254 314.353L306.757 273.192L311.741 263.081L386.269 299.82L405.402 261.007L414.372 265.429L390.254 314.353ZM421.446 251.078L358.823 220.207L363.566 210.586L426.189 241.456L421.446 251.078ZM350.798 210.17C349.873 212.045 348.438 213.348 346.49 214.077C344.556 214.779 342.692 214.688 340.898 213.804C339.104 212.919 337.897 211.496 337.276 209.535C336.669 207.546 336.827 205.614 337.752 203.739C338.676 201.863 340.105 200.574 342.039 199.872C343.987 199.143 345.857 199.221 347.651 200.105C349.445 200.989 350.646 202.426 351.253 204.414C351.874 206.376 351.723 208.294 350.798 210.17ZM401.948 195.641L439.62 214.212L434.876 223.833L372.254 192.963L376.836 183.667L386.621 188.491L387.023 187.675C384.566 184.64 383.11 181.152 382.654 177.211C382.171 173.256 383.095 168.914 385.427 164.185C387.517 159.945 390.215 156.664 393.523 154.341C396.803 152.005 400.631 150.818 405.008 150.78C409.358 150.728 414.197 152.015 419.524 154.641L459.316 174.257L454.572 183.879L415.433 164.585C410.514 162.16 406.052 161.548 402.047 162.749C398.015 163.938 394.901 166.761 392.703 171.218C391.189 174.289 390.502 177.363 390.641 180.438C390.794 183.487 391.806 186.334 393.678 188.979C395.549 191.625 398.306 193.846 401.948 195.641ZM449.573 136.451L437.588 130.745L438.553 128.788L424.172 87.6439L430.04 75.7391L445.168 119.481L444.766 120.297L449.573 136.451ZM467.983 156.675L384.486 115.514L389.229 105.893L472.726 147.053L467.983 156.675ZM487.598 116.884L444.554 126.071L441.245 115.926L493.628 104.653L487.598 116.884Z" fill="#9A49F0"/>
</svg>
